<svg xmlns="http://www.w3.org/2000/svg" viewBox="0 0 100 100" width="100" height="100">
  <g fill="none" stroke="#1e293b" stroke-width="4.5" stroke-linecap="round" stroke-linejoin="round">
    <line x1="30" y1="26" x2="44" y2="26" />
    <line x1="30" y1="34" x2="44" y2="34" />
    <line x1="30" y1="42" x2="44" y2="42" />
    <line x1="30" y1="50" x2="44" y2="50" />
    <line x1="30" y1="58" x2="44" y2="58" />
    <path d="M 52,24 A 12,12 0 0 1 76,24 L 76,58 A 22,22 0 1 1 52,58 Z" />
  </g>
  <path d="M 57,36 L 71,36 L 71,58 A 16,16 0 1 1 57,58 Z" fill="#1e293b" />
  <path d="M 74,72 A 13,13 0 0 1 63,82" fill="none" stroke="#ffffff" stroke-width="3.5" stroke-linecap="round" />
</svg>